<svg xmlns="http://www.w3.org/2000/svg" viewBox="0 0 16 16" width="16" height="16">
  <rect width="16" height="16" rx="3" fill="#00983A"/>
  <path d="M8 2.5C4.96 2.5 2.5 4.96 2.5 8c0 .97.25 1.88.69 2.67L2.5 13.5l2.89-.69C6.17 13.26 7.04 13.5 8 13.5c3.04 0 5.5-2.46 5.5-5.5S11.04 2.5 8 2.5zm2.75 7.37c-.12.33-.69.63-1.01.68-.27.05-.62.07-1-.2-.23-.16-.53-.32-.91-.55-1.58-.96-2.61-2.57-2.69-2.69-.08-.12-.62-.83-.62-1.58s.39-1.12.53-1.27c.14-.15.31-.19.41-.19l.3.01c.1 0 .23-.04.36.27.13.31.45 1.11.49 1.19.04.08.07.17.01.27-.06.1-.09.16-.18.25-.09.09-.19.2-.27.27-.09.09-.18.18-.08.36.1.18.45.74.97 1.2.67.59 1.23.78 1.41.87.18.09.28.08.39-.05.11-.13.45-.53.57-.71.12-.18.24-.15.41-.09.17.06.96.45 1.12.54.16.09.27.13.31.21.04.08.04.45-.08.78z" fill="white"/>
</svg>
